<?xml version="1.0" standalone="no"?>
<!DOCTYPE svg PUBLIC "-//W3C//DTD SVG 20010904//EN"
 "http://www.w3.org/TR/2001/REC-SVG-20010904/DTD/svg10.dtd">
<svg version="1.0" xmlns="http://www.w3.org/2000/svg"
 width="3464.000000pt" height="3464.000000pt" viewBox="0 0 3464.000000 3464.000000"
 preserveAspectRatio="xMidYMid meet">

<g transform="translate(0.000000,3464.000000) scale(0.100000,-0.100000)"
fill="#000000" stroke="none">
<path d="M6427 31804 c-1 -1 -96 -5 -212 -8 -294 -9 -312 -12 -480 -66 -82
-27 -170 -51 -195 -55 -106 -14 -159 -27 -254 -61 -56 -19 -114 -39 -131 -44
-144 -40 -457 -176 -612 -266 -200 -116 -716 -515 -818 -632 -22 -26 -65 -74
-95 -107 -50 -54 -120 -141 -160 -199 -14 -20 -89 -121 -175 -236 -76 -101
-162 -256 -248 -447 -130 -288 -194 -470 -233 -658 -9 -44 -33 -127 -54 -185
-49 -136 -57 -179 -70 -393 -7 -121 -10 -3737 -10 -11370 1 -12281 -4 -11423
60 -11602 18 -49 50 -164 72 -255 22 -91 58 -212 80 -270 22 -58 52 -139 68
-180 33 -91 131 -298 190 -400 24 -41 61 -106 83 -145 22 -38 63 -99 91 -135
29 -36 60 -77 69 -92 51 -82 216 -274 395 -458 51 -53 99 -106 108 -118 8 -12
36 -36 62 -54 26 -17 81 -59 122 -93 66 -53 156 -116 295 -204 22 -14 63 -42
90 -62 28 -20 100 -62 160 -94 296 -157 383 -197 544 -249 233 -76 343 -102
638 -151 51 -8 121 -25 155 -37 l63 -23 11270 0 11270 0 85 28 c47 16 139 35
205 44 105 13 374 75 505 116 132 42 397 160 520 231 47 27 123 69 170 94 87
45 113 62 252 158 138 97 210 153 318 247 218 192 447 439 554 600 42 62 97
141 123 177 40 55 104 174 334 621 75 145 187 562 204 759 12 129 25 197 57
290 l33 95 0 11215 0 11215 -32 110 c-38 127 -51 192 -59 290 -9 103 -49 288
-100 454 -48 161 -64 201 -148 376 -32 66 -73 154 -93 195 -61 132 -310 511
-449 685 -69 86 -266 286 -329 334 -16 13 -59 51 -95 84 -80 76 -195 165 -364
283 -184 128 -180 125 -306 191 -63 34 -140 74 -170 90 -30 16 -68 34 -85 41
-258 98 -484 170 -562 182 -70 9 -148 30 -283 75 -119 40 -211 53 -378 55 -85
0 -159 3 -164 6 -8 5 -21876 12 -21881 8z m11400 -4607 c32 -42 44 -70 58
-137 10 -47 27 -97 37 -113 21 -30 34 -66 48 -141 6 -27 21 -72 34 -100 13
-28 29 -76 37 -106 7 -30 22 -75 34 -100 12 -25 30 -74 39 -110 19 -68 51
-152 91 -235 22 -45 34 -87 50 -167 3 -15 14 -35 24 -45 23 -22 47 -90 60
-166 6 -32 23 -82 37 -110 15 -29 36 -68 46 -88 10 -19 25 -68 34 -108 10 -50
24 -85 44 -110 20 -25 34 -57 41 -97 14 -81 37 -153 59 -183 11 -14 35 -74 54
-132 19 -59 47 -124 61 -144 14 -21 30 -56 35 -79 17 -64 34 -112 85 -231 26
-60 51 -125 57 -144 5 -19 16 -44 23 -55 8 -12 27 -57 44 -101 16 -44 39 -98
50 -120 12 -21 21 -49 21 -61 0 -12 20 -61 45 -110 25 -48 45 -98 45 -111 0
-31 27 -98 66 -163 19 -30 42 -90 53 -134 13 -53 28 -88 46 -106 25 -26 55
-111 55 -157 0 -12 11 -34 24 -50 35 -42 86 -145 86 -173 0 -26 6 -38 57 -114
19 -29 34 -67 38 -96 4 -27 15 -60 25 -72 26 -34 53 -91 94 -198 21 -52 46
-104 56 -115 10 -11 22 -33 26 -50 4 -16 21 -61 39 -100 18 -38 39 -90 46
-115 7 -25 22 -56 34 -70 12 -14 29 -52 39 -85 10 -33 40 -101 67 -150 26 -50
53 -114 60 -143 7 -35 18 -58 33 -68 28 -18 40 -44 56 -120 8 -39 22 -70 42
-92 29 -34 73 -123 85 -171 3 -14 20 -42 38 -61 24 -25 36 -51 45 -92 7 -35
25 -78 46 -108 19 -27 34 -52 34 -56 0 -20 67 -154 91 -182 16 -18 31 -45 34
-60 3 -15 15 -45 26 -67 26 -49 155 -298 189 -362 14 -27 33 -59 42 -73 9 -14
20 -38 24 -55 4 -16 21 -46 39 -66 21 -24 38 -58 50 -105 14 -52 26 -76 51
-99 19 -17 44 -58 59 -95 15 -36 42 -81 60 -100 24 -24 36 -49 41 -80 5 -30
16 -54 34 -70 15 -14 42 -57 60 -95 17 -39 37 -81 43 -94 7 -13 22 -28 34 -34
15 -7 27 -25 34 -51 11 -43 77 -160 186 -331 109 -170 162 -258 184 -305 12
-25 35 -60 51 -78 15 -18 44 -64 63 -102 19 -38 44 -74 54 -80 11 -5 29 -35
41 -66 11 -31 32 -66 46 -76 13 -11 35 -41 48 -66 14 -26 41 -63 61 -82 20
-19 48 -60 62 -90 13 -30 37 -68 52 -85 16 -16 38 -48 49 -70 11 -23 39 -60
61 -83 23 -23 41 -48 41 -55 0 -8 9 -22 21 -33 12 -10 32 -40 44 -65 13 -25
31 -51 40 -59 9 -7 25 -31 36 -51 10 -21 28 -43 39 -49 11 -6 29 -27 39 -48
11 -20 49 -72 85 -114 36 -43 66 -83 66 -89 0 -5 22 -34 49 -62 26 -29 55 -64
62 -79 8 -15 29 -37 48 -50 20 -13 39 -37 46 -58 7 -21 26 -45 46 -58 19 -13
40 -35 48 -50 8 -15 38 -52 67 -82 30 -30 72 -75 95 -100 22 -25 101 -108 175
-184 74 -77 138 -145 142 -151 4 -7 48 -48 97 -91 50 -44 119 -109 155 -145
36 -36 87 -78 113 -93 29 -18 55 -42 67 -65 10 -20 28 -42 39 -49 31 -18 27
-57 -9 -88 -16 -15 -32 -36 -36 -48 -3 -12 -28 -43 -55 -71 -116 -117 -150
-159 -156 -187 -4 -20 -17 -37 -40 -50 -18 -11 -40 -32 -47 -47 -8 -14 -37
-53 -65 -86 -29 -33 -68 -80 -89 -104 -20 -25 -56 -66 -79 -93 -24 -27 -43
-55 -43 -63 0 -8 -16 -26 -35 -40 -19 -15 -37 -35 -40 -46 -4 -10 -35 -55 -71
-100 -35 -44 -64 -84 -64 -88 0 -4 -29 -39 -65 -76 -36 -38 -65 -75 -65 -81 0
-7 -16 -25 -35 -40 -25 -19 -39 -40 -48 -72 -9 -35 -19 -48 -48 -63 -21 -10
-39 -28 -42 -41 -4 -13 -27 -45 -52 -72 -25 -28 -56 -68 -70 -90 -13 -23 -44
-66 -69 -96 -26 -30 -53 -69 -61 -87 -9 -17 -26 -40 -39 -50 -13 -10 -31 -34
-41 -53 -10 -19 -32 -52 -49 -73 -17 -20 -45 -54 -62 -75 -18 -20 -38 -53 -46
-72 -9 -20 -27 -44 -41 -53 -15 -9 -34 -32 -43 -50 -9 -17 -36 -54 -59 -82
-23 -27 -49 -64 -58 -80 -8 -17 -34 -51 -57 -75 -23 -25 -54 -70 -70 -101 -16
-31 -39 -60 -53 -66 -17 -8 -28 -25 -36 -57 -8 -32 -21 -53 -46 -72 -19 -14
-35 -32 -35 -39 0 -16 -62 -107 -105 -156 -18 -20 -36 -50 -40 -67 -3 -17 -17
-37 -29 -46 -21 -13 -55 -64 -108 -158 -9 -17 -30 -45 -46 -62 -16 -17 -35
-42 -42 -56 -12 -24 -54 -84 -96 -138 -12 -15 -26 -43 -33 -63 -6 -19 -27 -51
-47 -70 -19 -19 -43 -52 -53 -75 -10 -22 -32 -56 -48 -75 -35 -39 -63 -91 -63
-114 0 -9 -18 -34 -40 -56 -22 -22 -45 -57 -51 -80 -7 -23 -19 -43 -26 -46
-21 -8 -84 -109 -99 -159 -7 -25 -25 -54 -38 -65 -13 -11 -32 -41 -42 -67 -9
-26 -25 -56 -33 -67 -9 -11 -25 -37 -35 -57 -11 -21 -22 -38 -26 -38 -4 0 -18
-24 -30 -52 -12 -29 -28 -60 -35 -68 -23 -27 -112 -204 -119 -238 -4 -17 -23
-50 -42 -73 -19 -23 -37 -53 -41 -66 -7 -32 -49 -114 -85 -168 -15 -23 -31
-69 -38 -109 -10 -53 -20 -78 -45 -105 -21 -24 -38 -59 -50 -106 -10 -38 -38
-106 -61 -151 -35 -65 -45 -97 -54 -170 -9 -65 -21 -108 -47 -161 -32 -65 -35
-82 -43 -200 -10 -141 -20 -175 -57 -192 -19 -9 -677 -11 -2512 -11 -2391 0
-2487 1 -2511 18 -41 30 -58 76 -65 180 -8 122 -23 211 -39 237 -7 11 -22 56
-35 100 -12 44 -28 96 -35 115 -8 19 -21 62 -31 95 -16 55 -39 111 -101 240
-13 28 -34 79 -45 115 -12 36 -32 78 -45 93 -13 15 -26 44 -30 65 -8 45 -15
59 -71 144 -24 36 -50 88 -58 114 -8 26 -27 61 -44 78 -18 20 -35 53 -45 90
-8 32 -26 70 -39 85 -35 36 -87 125 -87 146 0 9 -16 32 -36 50 -24 22 -39 47
-45 75 -5 24 -21 56 -34 72 -14 16 -25 33 -25 38 0 4 -16 31 -35 60 -19 29
-35 58 -35 66 0 8 -14 29 -30 46 -17 18 -38 48 -47 67 -9 20 -27 49 -40 64
-13 16 -23 35 -23 42 0 8 -14 30 -31 49 -16 19 -43 62 -59 95 -16 33 -45 78
-64 99 -20 21 -44 59 -55 84 -10 25 -33 55 -49 67 -19 13 -36 39 -46 67 -9 26
-40 74 -69 108 -30 33 -57 73 -60 87 -4 15 -22 38 -41 53 -20 15 -37 38 -41
56 -4 16 -21 48 -38 69 -51 64 -92 124 -105 153 -6 15 -22 34 -36 43 -14 9
-30 32 -37 52 -6 19 -24 49 -39 66 -15 18 -35 47 -44 65 -9 18 -23 35 -31 38
-7 3 -21 24 -30 47 -9 23 -32 60 -51 82 -112 130 -146 174 -163 211 -11 23
-39 62 -63 86 -24 25 -52 64 -62 87 -11 23 -33 49 -51 60 -22 12 -34 29 -38
51 -4 18 -22 46 -41 64 -18 17 -54 63 -79 101 -25 39 -55 79 -67 90 -13 11
-31 39 -41 62 -10 23 -29 49 -43 58 -14 9 -43 45 -65 80 -22 35 -47 67 -54 72
-8 4 -22 23 -31 41 -9 17 -21 32 -26 32 -5 0 -22 19 -36 43 -15 23 -42 59 -60
80 -19 20 -34 44 -34 52 0 8 -13 24 -29 36 -16 12 -46 46 -67 76 -20 29 -50
63 -65 74 -16 11 -37 40 -48 65 -11 25 -45 73 -74 107 -30 34 -57 70 -60 80
-4 10 -20 25 -37 35 -19 11 -36 33 -47 61 -11 28 -29 51 -54 68 -20 13 -42 37
-49 52 -6 15 -31 48 -56 72 -24 24 -44 47 -44 53 0 5 -19 31 -42 57 -67 75
-102 119 -118 149 -8 15 -29 39 -47 54 -17 15 -44 46 -59 69 -14 24 -42 53
-60 65 -44 29 -47 73 -8 105 15 12 45 42 68 66 22 24 56 50 73 57 18 8 39 27
48 44 8 16 28 36 45 45 16 8 50 40 76 70 26 30 52 55 57 55 15 0 163 154 181
188 9 17 23 32 31 32 21 0 163 147 179 185 9 21 25 36 44 43 17 6 37 23 45 39
8 15 38 49 66 75 28 26 51 53 51 60 0 7 17 29 38 48 38 37 154 180 205 254 16
23 46 59 67 81 21 22 45 56 53 75 8 20 26 44 40 53 15 9 33 30 41 45 8 15 37
52 65 82 36 39 56 71 67 108 12 40 22 56 46 68 17 9 36 31 44 51 8 19 35 56
58 82 24 25 53 68 65 95 11 27 37 66 55 87 19 21 42 53 52 71 9 18 32 50 50
70 18 20 42 54 53 75 11 21 43 70 71 108 27 39 59 90 71 115 11 24 36 63 55
87 19 23 46 67 60 97 14 31 36 64 50 75 13 10 37 52 54 91 16 40 42 87 59 104
16 17 36 48 45 70 9 21 31 53 50 70 21 20 41 55 55 96 12 36 35 79 51 95 16
17 35 46 41 65 7 19 21 46 31 60 45 60 88 134 97 166 5 19 23 50 40 70 17 19
31 41 31 48 0 7 12 30 26 51 14 21 32 56 41 78 9 22 32 63 51 91 19 28 45 75
58 103 13 29 42 83 65 120 22 37 43 81 46 98 8 41 22 66 50 88 12 10 23 24 23
31 0 22 67 151 89 170 12 11 32 55 47 103 18 60 32 88 50 99 14 10 30 35 38
65 16 53 58 130 91 169 12 14 27 49 33 78 7 29 30 80 52 114 22 34 40 68 40
76 0 8 13 38 29 66 16 28 32 62 36 76 4 14 15 34 25 45 9 11 23 36 30 55 7 19
44 96 80 171 37 75 70 151 74 170 3 19 22 59 41 89 20 30 40 73 46 95 13 47
55 134 93 189 14 21 26 51 26 65 0 47 20 99 54 140 20 24 36 56 40 82 7 43 44
117 78 155 11 12 29 60 40 105 14 59 28 93 48 114 16 17 33 52 39 81 7 27 26
75 44 105 35 60 71 142 91 206 8 23 22 54 33 70 11 15 30 57 43 93 13 36 34
85 47 109 13 24 23 53 23 64 0 11 15 50 34 87 19 36 41 89 49 116 24 74 67
175 88 204 11 14 27 61 35 105 12 60 23 88 44 110 20 21 33 52 45 105 21 92
17 82 66 160 30 47 45 86 57 144 11 58 23 88 43 111 19 21 33 55 45 106 9 41
29 94 44 119 36 57 75 154 84 205 4 22 23 70 41 107 19 37 37 85 41 105 4 21
18 63 31 93 24 54 39 92 106 280 18 52 38 106 45 120 37 82 91 231 97 270 4
25 24 77 46 117 21 40 39 82 39 95 0 36 33 128 62 178 35 59 53 111 62 179 8
64 29 117 57 147 14 15 25 50 35 115 9 52 21 101 29 109 15 16 75 160 76 182
1 22 43 101 56 105 7 3 21 -14 32 -36 l21 -40 -2 -5277 -3 -5276 -46 -42 c-27
-23 -77 -53 -118 -69 -40 -16 -84 -39 -99 -51 -15 -12 -47 -32 -72 -44 -25
-12 -56 -38 -70 -58 -13 -20 -41 -47 -62 -60 -20 -13 -42 -33 -48 -44 -6 -11
-29 -31 -50 -45 -25 -16 -49 -43 -65 -75 -14 -27 -34 -54 -44 -60 -11 -5 -23
-20 -26 -32 -4 -13 -26 -61 -50 -108 -86 -172 -108 -287 -103 -531 4 -169 7
-192 35 -284 16 -56 42 -120 57 -143 14 -23 36 -66 47 -95 11 -28 35 -68 53
-87 18 -19 39 -50 46 -68 7 -19 30 -45 52 -60 22 -14 46 -38 54 -54 8 -15 29
-34 47 -42 18 -7 41 -25 50 -39 18 -28 109 -91 167 -115 19 -8 38 -19 41 -24
3 -5 37 -21 75 -35 38 -14 87 -32 109 -40 65 -25 294 -38 462 -26 128 9 159
14 233 42 153 59 304 144 355 201 11 12 37 31 58 41 21 11 42 30 47 43 4 13
24 36 43 52 37 32 90 106 102 143 4 13 22 39 40 57 23 22 35 46 40 76 4 24 24
75 45 114 60 110 70 164 70 380 0 220 -11 280 -70 393 -22 42 -42 92 -45 111
-3 20 -22 59 -43 87 -20 28 -49 74 -65 102 -17 32 -41 60 -63 73 -19 11 -41
35 -49 54 -8 19 -19 34 -25 34 -6 0 -39 26 -74 59 -35 32 -73 62 -85 66 -13 4
-42 20 -66 36 -24 16 -45 29 -48 29 -3 0 -43 17 -89 39 -45 21 -94 41 -108 44
-14 3 -34 13 -45 21 -20 14 -20 26 -20 5329 0 5376 0 5347 30 5347 1 0 21 -24
42 -53z m2603 -18339 c19 -9 77 -24 128 -33 66 -12 101 -24 122 -41 15 -13 33
-24 39 -24 7 0 27 -15 45 -32 18 -18 54 -50 79 -70 29 -24 49 -51 57 -75 6
-21 30 -76 53 -122 35 -72 41 -94 45 -166 5 -103 -8 -165 -57 -268 -22 -45
-45 -96 -51 -114 -7 -18 -21 -35 -31 -38 -10 -4 -40 -31 -65 -60 -41 -47 -56
-57 -115 -75 -68 -20 -99 -46 -99 -81 0 -21 115 -119 138 -119 22 0 182 -153
182 -174 0 -9 17 -51 39 -94 51 -103 65 -165 59 -271 -5 -76 -11 -98 -50 -181
-25 -52 -49 -108 -54 -125 -5 -17 -21 -36 -36 -43 -15 -7 -44 -33 -63 -57 -26
-31 -50 -49 -85 -60 -27 -9 -54 -23 -61 -31 -7 -9 -31 -25 -53 -37 l-41 -22
-3050 -3 c-1974 -2 -3073 1 -3115 7 -50 8 -70 16 -85 35 -11 14 -45 34 -75 45
-77 29 -184 133 -226 221 -43 88 -65 169 -71 260 -7 103 31 259 84 340 53 79
164 184 214 200 28 10 51 27 70 54 51 69 32 118 -54 136 -42 9 -62 20 -105 63
-98 96 -112 112 -112 123 0 6 -10 24 -22 39 -21 27 -51 116 -70 210 -20 98 12
273 69 380 19 36 81 105 159 177 45 41 145 86 217 98 35 5 91 19 123 29 58 19
130 19 2974 18 2691 -2 2918 -3 2950 -19z"/>
</g>
</svg>
